<?xml version="1.0" encoding="UTF-8"?><svg id="a" xmlns="http://www.w3.org/2000/svg" viewBox="0 0 256 256"><path d="M86.25,186.38c0,32.29-22.77,50.6-43.64,62.97l-3.08-3.89c12.1-8.7,21.35-24.5,21.35-55.18V60.45c0-14.65-.95-20.61-23.24-20.61v-5.5H109.25v5.5c-22.29,0-23.01,5.95-23.01,20.61v125.94Z"/><path d="M100.95,194.63v-5.5c21.35,0,23.24-5.27,23.24-20.61V60.45c0-14.88-1.19-20.61-23.24-20.61v-5.5h123.57l1.42,33.89h-5.93c-4.03-24.73-9.72-25.64-32.49-25.64h-37.95v63.88h37.95c15.65,0,17.79-4.81,17.79-20.38h5.69v50.14h-5.69c0-16.71-2.13-21.29-17.79-21.29h-37.95v53.58c0,15.34,2.85,20.61,27.75,20.61v5.5H100.95Z"/></svg>
